<?xml version="1.0" encoding="UTF-8"?>
<!DOCTYPE svg PUBLIC "-//W3C//DTD SVG 1.1//EN" "http://www.w3.org/Graphics/SVG/1.1/DTD/svg11.dtd">
<!-- Creator: CorelDRAW -->
<svg xmlns="http://www.w3.org/2000/svg" xml:space="preserve" width="210mm" height="297mm" version="1.1" style="shape-rendering:geometricPrecision; text-rendering:geometricPrecision; image-rendering:optimizeQuality; fill-rule:evenodd; clip-rule:evenodd"
viewBox="0 0 21000 29700"
 xmlns:xlink="http://www.w3.org/1999/xlink"
 xmlns:xodm="http://www.corel.com/coreldraw/odm/2003">
 <defs>
  <style type="text/css">
   <![CDATA[
    .str0 {stroke:#FEFEFE;stroke-width:20;stroke-miterlimit:22.9256}
    .str1 {stroke:#FEFEFE;stroke-width:10;stroke-miterlimit:22.9256}
    .fil2 {fill:none}
    .fil3 {fill:#FDFCFC}
    .fil1 {fill:#2B2A29;fill-rule:nonzero}
    .fil0 {fill:#4D897C;fill-rule:nonzero}
   ]]>
  </style>
 </defs>
 <g id="Layer_x0020_1">
  <metadata id="CorelCorpID_0Corel-Layer"/>
  <path class="fil0" d="M1905.55 11576.42l1554.57 0c99.32,17.56 148.98,64.8 148.98,141.71l0 2519.3c0,70.85 -56.93,113.85 -170.78,127.78l-1511.58 0c-90.84,0 -147.76,-42.39 -170.17,-127.78l0 -2512.03c17.56,-99.32 67.22,-148.98 148.98,-148.98zm-85.39 113.25l0 7.27 7.27 0c14.53,-38.16 38.15,-56.93 70.85,-56.93l1568.5 0c26.05,0 52.09,16.35 78.13,49.66l0 -7.27c-17.57,-42.39 -50.87,-63.59 -99.32,-63.59l-1504.31 0c-80.55,0 -121.12,23.62 -121.12,70.86zm646.17 354.88c-175.02,1016.2 -281.6,1642.99 -319.15,1880.39l290.69 0c13.32,0 29.67,-92.05 49.66,-276.76 4.84,0 13.93,-52.08 28.46,-155.64l290.69 0 0 6.66 64.19 425.74 305.23 0c-208.33,-1238.45 -312.49,-1865.25 -312.49,-1880.39l-397.28 0zm191.37 461.47l7.27 0 92.05 702.49 -198.64 0c66.62,-433 99.32,-667.37 99.32,-702.49zm-844.2 290.69l0 42.39c0,49.66 2.42,125.36 6.66,227.1l21.8 0 6.66 -84.79 0 -184.7c0,-9.09 -4.24,-13.93 -13.93,-13.93l-7.26 0c-9.09,1.21 -13.93,5.45 -13.93,13.93zm1702.94 0l0 28.46c0,54.5 2.43,137.47 7.27,248.3l21.2 0 7.26 -84.79 0 -191.97c0,-9.09 -4.84,-13.93 -14.53,-13.93l-6.66 0c-9.69,1.21 -14.54,5.45 -14.54,13.93z"/>
  <path id="_1" class="fil0" d="M4033.02 11576.42l1554.57 0c92.05,0 144.14,58.75 155.64,176.84l0 2427.24c0,90.24 -30.28,146.56 -92.05,170.78 -17.56,9.09 -36.94,13.93 -56.93,13.93l-1561.23 0c-99.32,-17.56 -148.98,-64.8 -148.98,-141.71l0 -2498.1c18.77,-99.32 68.43,-148.98 148.98,-148.98zm-85.39 113.25l0 7.27 7.27 0c15.74,-38.16 39.36,-56.93 70.85,-56.93l1575.77 0c47.24,10.9 70.86,32.1 70.86,63.59l7.26 0 0 -6.66c-19.98,-47.24 -46.02,-70.86 -78.12,-70.86l-1575.77 0c-36.34,0 -62.38,21.2 -78.12,63.59zm426.34 340.95l0 1880.39 290.69 0 0 -688.57c1.21,-9.08 6.05,-13.93 14.53,-13.93l134.45 0c236.79,0 388.19,-130.2 454.2,-390.61l0 -347.61c0,-230.74 -118.1,-374.87 -354.89,-433.01 -44.81,-4.84 -87.2,-6.66 -127.78,-6.66l-411.2 0zm305.22 297.96l148.98 0c108.4,0 162.91,68.43 162.91,205.9l0 191.37c0,105.38 -42.4,168.96 -127.78,191.37l-184.11 0c-9.69,0 -14.53,-4.24 -14.53,-13.93l0 -560.78c1.21,-9.09 6.05,-13.93 14.53,-13.93zm-731.56 454.2l-6.66 35.12 6.66 227.1 28.46 0 0 -248.29c0,-9.09 -4.24,-13.93 -13.93,-13.93l-14.53 0zm1703.55 0l-7.27 35.12c0,29.68 2.43,107.8 7.27,234.37l28.46 0 0 -255.56c0,-9.09 -4.84,-13.93 -14.53,-13.93l-13.93 0z"/>
  <path id="_2" class="fil0" d="M6160.49 11576.42l1554.57 0c92.05,0 144.14,58.75 155.64,176.84l0 2427.24c0,90.24 -30.28,146.56 -92.05,170.78 -17.56,9.09 -36.94,13.93 -56.93,13.93l-1561.23 0c-99.32,-17.56 -148.98,-64.8 -148.98,-141.71l0 -2498.1c18.77,-99.32 68.43,-148.98 148.98,-148.98zm-85.39 113.25l0 7.27 7.27 0c15.74,-38.16 39.36,-56.93 70.85,-56.93l1575.77 0c47.24,10.9 70.86,32.1 70.86,63.59l7.26 0 0 -6.66c-19.98,-47.24 -46.02,-70.86 -78.12,-70.86l-1575.77 0c-36.34,0 -62.38,21.2 -78.12,63.59zm426.34 340.95l0 1880.39 290.69 0 0 -688.57c1.21,-9.08 6.05,-13.93 14.53,-13.93l134.45 0c236.79,0 388.19,-130.2 454.2,-390.61l0 -347.61c0,-230.74 -118.1,-374.87 -354.89,-433.01 -44.81,-4.84 -87.2,-6.66 -127.78,-6.66l-411.2 0zm305.22 297.96l148.98 0c108.4,0 162.91,68.43 162.91,205.9l0 191.37c0,105.38 -42.4,168.96 -127.78,191.37l-184.11 0c-9.69,0 -14.53,-4.24 -14.53,-13.93l0 -560.78c1.21,-9.09 6.05,-13.93 14.53,-13.93zm-731.56 454.2l-6.66 35.12 6.66 227.1 28.46 0 0 -248.29c0,-9.09 -4.24,-13.93 -13.93,-13.93l-14.53 0zm1703.55 0l-7.27 35.12c0,29.68 2.43,107.8 7.27,234.37l28.46 0 0 -255.56c0,-9.09 -4.84,-13.93 -14.53,-13.93l-13.93 0z"/>
  <path id="_3" class="fil0" d="M8287.96 11576.42l1561.23 0c99.32,13.93 148.98,70.86 148.98,170.18l0 2455.1c-10.29,109.01 -59.95,163.51 -148.98,163.51l-1561.23 0c-88.42,0 -138.08,-54.5 -148.98,-163.51l0 -2448.44c10.9,-118.09 60.56,-176.84 148.98,-176.84zm-78.12 99.32l0 6.66c28.46,-28.46 52.08,-42.39 70.85,-42.39l1575.77 0c33.31,0 56.93,18.77 70.86,56.93l7.26 0 0 -7.27c-14.53,-47.24 -56.92,-70.86 -127.78,-70.86l-1476.45 0c-63.59,0 -103.56,18.78 -120.51,56.93zm-7.27 13.93l0 13.93 7.27 0 0 -13.93 -7.27 0zm397.88 347.61l0 1887.66 276.76 0c9.08,0 13.93,-4.24 13.93,-13.93l0 -681.3c1.21,-9.69 6.05,-13.93 14.53,-13.93l155.64 0c10.9,0 55.71,177.44 135.05,531.72 27.25,107.79 46.02,167.14 56.92,177.44l297.96 0 0 -6.66c0,-12.11 -68.43,-284.03 -205.9,-816.35 99.31,-96.9 148.97,-201.06 148.97,-312.49l0 -326.42c0,-217.41 -101.74,-354.88 -305.22,-411.2 -73.28,-9.69 -144.13,-14.54 -212.57,-14.54l-376.07 0zm305.22 297.96l148.98 0c104.16,0 156.24,43 156.24,127.78l0 333.69c0,70.85 -56.92,116.27 -170.78,135.04l-134.44 0c-9.69,0 -14.53,-4.84 -14.53,-14.53l0 -567.45c1.21,-9.69 6.05,-14.53 14.53,-14.53zm-703.1 447.54l0 262.22 28.46 0 0 -262.22 -28.46 0zm1703.55 0l0 269.49 28.46 0 0 -269.49 -28.46 0z"/>
  <path id="_4" class="fil0" d="M10415.43 11576.42l1554.57 0c99.32,18.78 148.98,68.43 148.98,148.98l0 2512.03c0,70.85 -54.5,113.85 -163.51,127.78l-1547.31 0c-72.07,0 -119.3,-39.97 -141.71,-120.51l0 -2526.57c0,-76.91 49.66,-124.15 148.98,-141.71zm-85.39 105.98l0 7.27 7.27 0c0,-23.62 23.61,-39.97 70.85,-49.66l1568.5 0c47.24,8.48 70.86,27.25 70.86,56.93l7.27 0 0 -7.27c-15.14,-42.39 -41.18,-63.59 -78.13,-63.59l-1575.16 0c-29.68,0 -53.29,18.77 -71.46,56.32zm404.54 759.42l0 1043.45c0,223.47 123.54,372.45 369.41,446.94 23.62,0 52.09,2.42 84.79,7.26 185.92,0 325.81,-96.89 419.07,-291.29 18.78,-47.24 28.47,-94.47 28.47,-141.71l0 -1050.11c0,-210.75 -111.43,-354.88 -333.69,-433.01 -35.73,-9.68 -68.43,-14.53 -99.32,-14.53l-35.73 0c-177.44,0 -311.88,97.5 -404.54,291.29 -18.77,47.24 -28.46,94.48 -28.46,141.71zm411.81 -141.71l49.66 0c80.54,0 127.78,54.51 142.31,162.91l0 986.52c0,90.24 -33.31,148.98 -99.92,177.44 -6.66,6.06 -30.28,10.9 -70.86,14.54 -99.32,-23.62 -148.97,-73.28 -148.97,-148.98l0 -1050.72c23.61,-94.47 66.61,-141.71 127.78,-141.71zm-823.01 496.6l0 163.51 6.66 84.78 21.8 0c4.24,-124.15 6.66,-208.93 6.66,-255.56l-13.93 -6.66 -7.26 0c-9.09,1.21 -13.93,5.45 -13.93,13.93zm1702.94 0l0 170.17 7.27 85.39 21.2 0c4.84,-119.3 7.26,-207.12 7.26,-262.83l-14.53 -6.66 -6.66 0c-9.69,1.21 -14.54,5.45 -14.54,13.93z"/>
  <path id="_5" class="fil0" d="M12542.9 11576.42l1554.57 0c99.32,17.56 148.98,64.8 148.98,141.71l0 2519.3c0,70.85 -56.93,113.85 -170.78,127.78l-1511.58 0c-90.84,0 -147.76,-42.39 -170.17,-127.78l0 -2512.03c17.56,-99.32 67.22,-148.98 148.98,-148.98zm-85.39 113.25l0 7.27 7.27 0c14.53,-38.16 38.15,-56.93 70.85,-56.93l1568.5 0c26.05,0 52.09,16.35 78.13,49.66l0 -7.27c-17.57,-42.39 -50.87,-63.59 -99.32,-63.59l-1504.31 0c-80.55,0 -121.12,23.62 -121.12,70.86zm646.17 354.88c-175.02,1016.2 -281.6,1642.99 -319.15,1880.39l290.69 0c13.32,0 29.67,-92.05 49.66,-276.76 4.84,0 13.93,-52.08 28.46,-155.64l290.69 0 0 6.66 64.19 425.74 305.23 0c-208.33,-1238.45 -312.49,-1865.25 -312.49,-1880.39l-397.28 0zm191.37 461.47l7.27 0 92.05 702.49 -198.64 0c66.62,-433 99.32,-667.37 99.32,-702.49zm-844.2 290.69l0 42.39c0,49.66 2.42,125.36 6.66,227.1l21.8 0 6.66 -84.79 0 -184.7c0,-9.09 -4.24,-13.93 -13.93,-13.93l-7.26 0c-9.09,1.21 -13.93,5.45 -13.93,13.93zm1702.94 0l0 28.46c0,54.5 2.43,137.47 7.27,248.3l21.2 0 7.26 -84.79 0 -191.97c0,-9.09 -4.84,-13.93 -14.53,-13.93l-6.66 0c-9.69,1.21 -14.54,5.45 -14.54,13.93z"/>
  <path id="_6" class="fil0" d="M14670.37 11576.42l1554.57 0c99.32,17.56 148.98,64.8 148.98,141.71l0 2512.03c0,79.33 -54.5,124.15 -163.51,135.05l-1525.51 0c-109.01,-10.9 -163.51,-55.72 -163.51,-135.05l0 -2512.03c0,-76.91 49.66,-124.15 148.98,-141.71zm-85.39 113.25c26.04,-33.31 52.08,-49.66 78.12,-49.66l1568.5 0c26.05,0 52.09,16.35 78.13,49.66l0 -7.27c0,-13.93 -18.78,-32.7 -56.93,-56.32l-1610.9 0c-37.54,21.2 -56.92,42.39 -56.92,63.59zm411.81 809.08l0 986.52c0,217.41 109,366.39 326.41,446.94 35.73,9.69 69.04,14.53 99.32,14.53l56.93 0c182.28,0 317.33,-106.59 404.54,-319.76 9.69,-35.12 13.93,-68.43 13.93,-99.31l0 -297.96 -283.42 0c-9.69,1.21 -14.54,6.06 -14.54,13.93l0 262.83c0,79.33 -52.08,128.99 -156.24,148.98 -95.69,0 -150.19,-59.35 -162.91,-177.44l0 -979.26c0,-107.8 47.24,-171.38 141.71,-191.37l21.2 0c104.16,19.99 156.24,69.65 156.24,148.98l0 233.76 297.96 0 0 -248.3c0,-166.54 -94.47,-296.74 -283.42,-390 -47.24,-19.38 -95.08,-28.47 -142.32,-28.47l-42.39 0c-170.17,0 -302.8,92.06 -397.27,276.76 -23.62,52.09 -35.73,118.1 -35.73,198.64zm-418.47 297.96l0 163.51 6.66 84.78 21.8 0 6.66 -84.78 0 -163.51c0,-9.09 -4.24,-13.93 -13.93,-13.93l-7.26 0c-9.09,1.21 -13.93,5.45 -13.93,13.93zm1702.94 0l0 170.17 7.27 85.39 21.2 0 7.26 -85.39 0 -170.17c0,-9.09 -4.84,-13.93 -14.53,-13.93l-6.66 0c-9.69,1.21 -14.54,5.45 -14.54,13.93z"/>
  <path id="_7" class="fil0" d="M16797.84 11576.42l1554.57 0c92.05,0 144.14,58.75 155.64,176.84l0 2427.24c0,90.24 -30.28,146.56 -92.05,170.78 -17.56,9.09 -36.94,13.93 -56.93,13.93l-1561.23 0c-99.32,-17.56 -148.98,-64.8 -148.98,-141.71l0 -2498.1c18.77,-99.32 68.43,-148.98 148.98,-148.98zm-85.39 113.25l0 7.27 7.27 0c15.74,-38.16 39.36,-56.93 70.85,-56.93l1575.77 0c47.24,10.9 70.86,32.1 70.86,63.59l7.26 0 0 -6.66c-19.98,-47.24 -46.02,-70.86 -78.12,-70.86l-1575.77 0c-36.34,0 -62.38,21.2 -78.12,63.59zm397.88 354.88l0 1880.39 290.69 0 0 -780.62c1.21,-9.08 6.05,-13.93 14.53,-13.93l305.22 0c9.09,1.21 13.93,6.06 13.93,13.93l0 780.62 290.69 0 0 -844.21c0,-48.45 -1.82,-86.6 -6.66,-113.85 4.84,-27.25 6.66,-64.8 6.66,-113.25l0 -809.08 -290.69 0 0 780.62c0,9.69 -4.84,13.93 -13.93,13.93l-305.22 0c-9.69,0 -14.53,-4.24 -14.53,-13.93l0 -780.62 -290.69 0zm-397.88 738.23l-6.66 35.12 6.66 227.1 28.46 0 0 -248.29c0,-9.09 -4.24,-13.93 -13.93,-13.93l-14.53 0zm1703.55 0l-7.27 35.12c0,29.68 2.43,107.8 7.27,234.37l28.46 0 0 -255.56c0,-9.09 -4.84,-13.93 -14.53,-13.93l-13.93 0z"/>
  <path class="fil1" d="M15023.68 9901.19l693.07 0c51.95,0 77.65,26.8 77.65,80.69l0 1114.21c0,39.79 -18.24,65.77 -54.99,77.65l-725.4 0c-40.9,0 -63.56,-24.87 -67.98,-74.61l0 -1120.29c3.32,-51.95 29.29,-77.65 77.65,-77.65zm-48.63 51.67l0 3.32 3.31 0c7.19,-17.41 17.96,-25.98 32.33,-25.98l719.04 0c21.56,4.98 32.34,14.65 32.34,29.02l3.31 0 0 -3.04c-8.56,-21.56 -20.45,-32.33 -35.65,-32.33l-719.04 0c-15.47,0 -27.35,9.67 -35.64,29.01zm217.2 161.94l0 858.04 132.64 0 0 -356.2c0.56,-4.15 2.77,-6.36 6.64,-6.36l168.29 0 0 -132.92 -168.29 0c-4.42,0 -6.64,-1.94 -6.64,-6.36l0 -216.93c0.56,-4.42 2.77,-6.63 6.64,-6.63l226.6 0c4.14,0 6.35,-1.93 6.35,-6.35l0 -126.29 -372.23 0zm-217.2 336.86l0 119.66 12.98 0 0 -113.3c0,-4.15 -1.93,-6.36 -6.35,-6.36l-6.63 0zm777.35 0l0 122.97 12.98 0 0 -116.61c0,-4.15 -2.21,-6.36 -6.63,-6.36l-6.35 0z"/>
  <path id="_1_0" class="fil1" d="M15984.8 9901.19l709.37 0c45.32,8.56 67.98,31.22 67.98,67.98l0 1146.26c0,32.33 -24.87,51.95 -74.61,58.31l-706.06 0c-32.88,0 -54.44,-18.24 -64.66,-54.99l0 -1152.9c0,-35.09 22.66,-56.65 67.98,-64.66zm-38.96 48.36l0 3.31 3.31 0c0,-10.77 10.78,-18.24 32.33,-22.66l715.73 0c21.55,3.87 32.33,12.44 32.33,25.98l3.32 0 0 -3.32c-6.91,-19.34 -18.79,-29.01 -35.65,-29.01l-718.77 0c-13.54,0 -24.31,8.56 -32.6,25.7zm184.59 346.53l0 476.14c0,101.97 56.38,169.95 168.57,203.94 10.78,0 23.77,1.1 38.69,3.31 84.84,0 148.67,-44.21 191.23,-132.92 8.56,-21.55 12.98,-43.11 12.98,-64.66l0 -479.18c0,-96.17 -50.84,-161.94 -152.26,-197.58 -16.3,-4.42 -31.23,-6.64 -45.32,-6.64l-16.3 0c-80.97,0 -142.32,44.5 -184.6,132.92 -8.57,21.56 -12.99,43.11 -12.99,64.67zm187.91 -64.67l22.66 0c36.76,0 58.31,24.88 64.94,74.34l0 450.16c0,41.18 -15.19,67.98 -45.59,80.97 -3.04,2.76 -13.82,4.97 -32.33,6.63 -45.32,-10.78 -67.98,-33.44 -67.98,-67.98l0 -479.45c10.77,-43.11 30.39,-64.67 58.3,-64.67zm-375.54 226.61l0 74.61 3.04 38.69 9.94 0c1.94,-56.65 3.04,-95.34 3.04,-116.62l-6.35 -3.04 -3.32 0c-4.14,0.55 -6.35,2.49 -6.35,6.36zm777.07 0l0 77.65 3.32 38.96 9.67 0c2.21,-54.44 3.31,-94.51 3.31,-119.93l-6.63 -3.04 -3.04 0c-4.42,0.55 -6.63,2.49 -6.63,6.36z"/>
  <path id="_2_1" class="fil1" d="M16955.59 9901.19l709.37 0c40.9,0 63.56,24.59 67.98,74.33l0 1136.6c0,32.88 -22.66,53.61 -67.98,61.62l-702.74 0c-49.74,-6.91 -74.61,-25.42 -74.61,-54.99l0 -1152.9c0,-35.09 22.66,-56.65 67.98,-64.66zm-38.96 48.36l0 3.31 3.31 0c0,-6.91 7.74,-14.64 22.66,-22.66l725.4 0c11.88,0 23.76,7.46 35.65,22.66l0 -3.31c-6.36,-19.35 -25.98,-29.02 -58.31,-29.02l-667.09 0c-40.9,2.21 -61.62,11.88 -61.62,29.02zm191.22 168.56l0 654.11c0,105.28 56.1,174.37 168.3,207.25 16.3,0 28.18,1.11 35.64,3.32 90.64,0 156.69,-46.43 197.59,-139.28 6.35,-17.41 9.67,-35.65 9.67,-55.27l0 -676.76 -135.96 0 0 657.42c-6.08,51.95 -28.74,77.65 -67.98,77.65l-9.67 0c-39.52,0 -62.18,-25.7 -67.98,-77.65l0 -657.42 -123.25 0c-4.14,0.56 -6.36,2.77 -6.36,6.63zm-194.26 339.91l0 74.61 3.04 38.69 9.94 0c1.94,-56.65 3.04,-95.34 3.04,-116.62l-6.35 -3.04 -3.32 0c-4.14,0.55 -6.35,2.49 -6.35,6.36zm777.07 0l0 77.65 3.32 38.96 9.67 0c2.21,-54.44 3.31,-94.51 3.31,-119.93l-6.63 -3.04 -3.04 0c-4.42,0.55 -6.63,2.49 -6.63,6.36z"/>
  <path id="_3_2" class="fil1" d="M17926.38 9901.19l712.41 0c45.32,6.35 67.98,32.33 67.98,77.65l0 1120.29c-4.7,49.74 -27.36,74.61 -67.98,74.61l-712.41 0c-40.35,0 -63.01,-24.87 -67.98,-74.61l0 -1117.25c4.97,-53.89 27.63,-80.69 67.98,-80.69zm-35.65 45.32l0 3.04c12.99,-12.99 23.77,-19.35 32.33,-19.35l719.04 0c15.2,0 25.98,8.57 32.34,25.98l3.31 0 0 -3.32c-6.63,-21.55 -25.97,-32.33 -58.31,-32.33l-673.72 0c-29.01,0 -47.25,8.57 -54.99,25.98zm-3.31 6.35l0 6.36 3.31 0 0 -6.36 -3.31 0zm181.55 158.62l0 861.36 126.29 0c4.15,0 6.36,-1.93 6.36,-6.36l0 -310.88c0.55,-4.42 2.76,-6.36 6.63,-6.36l71.02 0c4.97,0 25.42,80.97 61.62,242.63 12.44,49.19 21,76.27 25.98,80.97l135.96 0 0 -3.04c0,-5.53 -31.23,-129.6 -93.96,-372.51 45.32,-44.21 67.98,-91.74 67.98,-142.59l0 -148.95c0,-99.21 -46.42,-161.94 -139.27,-187.64 -33.44,-4.42 -65.77,-6.63 -97,-6.63l-171.61 0zm139.28 135.96l67.98 0c47.53,0 71.29,19.62 71.29,58.31l0 152.27c0,32.33 -25.97,53.05 -77.92,61.62l-61.35 0c-4.42,0 -6.63,-2.21 -6.63,-6.63l0 -258.94c0.55,-4.42 2.76,-6.63 6.63,-6.63zm-320.83 204.22l0 119.66 12.98 0 0 -119.66 -12.98 0zm777.35 0l0 122.97 12.98 0 0 -122.97 -12.98 0z"/>
  <line class="fil2 str0" x1="1770.23" y1="12920.64" x2="18885.35" y2= "12907.94" />
  <line class="fil2 str1" x1="14950.98" y1="10520.63" x2="18439.43" y2= "10520.63" />
  <polygon class="fil3" points="7725.75,16093.32 12815.6,16093.32 12815.6,16969.38 7725.75,16969.38 "/>
  <path class="fil1" d="M8128.45 16386.89c14.18,-22.57 21.33,-47.37 21.33,-74.51 0,-24.8 -8.26,-49.6 -24.57,-74.63 37.53,16.09 56.3,41.22 56.3,75.63 0,34.74 -17.65,59.32 -53.06,73.51zm-198.96 -160.31l0 344.52 -14.08 0c-5.47,0 -14.07,0.67 -25.8,2.01 -10.06,1.34 -21.9,2.01 -35.42,2.01l0 -6.03c13.97,-1.56 25.59,-8.38 34.75,-20.67 9.16,-12.17 13.74,-35.75 13.74,-70.71l0 -168.24c0,-47.59 -16.2,-74.73 -48.49,-81.55l0 -6.03c13.97,1.79 39.1,3.35 75.3,4.69zm50.94 89.37l0 71.27c12.85,3.24 26.81,4.92 41.78,4.92 49.04,0 73.51,-25.58 73.51,-76.86 0,-47.92 -24.25,-71.94 -72.84,-71.94 -15.64,0 -27.82,3.13 -36.53,9.49 -3.91,8.83 -5.92,29.83 -5.92,63.12zm-17.65 255.15l-9.5 0 0 -344.52c13.07,0 27.04,-0.67 41.89,-2.01 16.98,-1.79 30.73,-2.68 41.45,-2.68 29.83,0 52.06,9.16 66.58,27.37 14.63,18.21 22.01,40.66 22.01,67.36 0,45.24 -19.11,74.29 -57.31,87.02 18.99,2.57 34.96,8.27 47.81,16.98 13.74,9.39 34.63,28.16 62.56,56.31 42.56,43.12 77.19,64.68 104,64.68 5.48,0 11.06,-1.9 16.76,-5.59l1.34 5.92c-8.82,11.29 -20.89,16.98 -36.42,16.98 -16.53,0 -33.85,-6.14 -52.05,-18.65 -16.99,-11.73 -42.34,-34.86 -76.19,-69.26 -40.55,-41.9 -79.99,-62.79 -118.3,-62.79 23.68,7.38 55.85,32.4 96.29,74.85 28.6,29.72 51.5,51.28 68.82,64.79 17.42,13.52 34.07,20.22 50.04,20.22l0 3.02c-7.37,2.68 -14.74,4.02 -21.89,4.02 -21.23,0 -39.55,-5.36 -55.08,-16.2 -8.26,-5.81 -18.77,-14.85 -31.5,-26.92 -12.85,-12.06 -28.15,-27.7 -46.03,-46.92 -26.14,-27.93 -45.46,-46.92 -58.09,-56.97 -13.51,-10.17 -26.69,-17.43 -39.54,-21.56l0 77.53c0,52.05 15.75,80.43 47.14,85.01l0 6.03c-26.14,-2.68 -47.81,-4.02 -64.79,-4.02z"/>
  <path id="_1_3" class="fil1" d="M8350.2 16272.16c-25.03,32.06 -37.43,74.73 -37.43,128.02 0,62.34 15.42,109.26 46.25,140.76 -23.35,-9.83 -42,-27.71 -55.85,-53.4 -13.75,-25.58 -20.67,-54.29 -20.67,-86.47 0,-22 3.57,-42.22 10.83,-60.88 6.82,-18.32 14.86,-32.62 24.36,-42.78 8.71,-9.83 19.55,-18.32 32.51,-25.25zm272.35 227.78l6.59 0 -10.5 55.41c-20.33,7.93 -39.88,13.74 -58.65,17.54 -18.77,3.68 -36.86,5.58 -54.29,5.58 -52.84,0 -94.17,-15.52 -124,-46.47 -30.05,-30.5 -45.02,-74.85 -45.02,-133.16 0,-57.98 16.09,-102.44 48.26,-133.16 31.84,-30.5 73.95,-45.8 126.34,-45.8 37.99,0 76.3,6.81 115.18,20.55 -1.68,27.48 -2.57,43.68 -2.57,48.71 0,4.58 0.11,9.05 0.33,13.52l0 7.82c0,11.28 -0.55,22.12 -1.67,32.39l-5.59 0c-13.51,-65.91 -51.27,-98.86 -113.27,-98.86 -41.89,0 -75.18,13.63 -100.1,40.88 -24.91,27.04 -37.31,66.14 -37.31,117.19 0,44.8 11.51,81.1 34.41,109.03 22.68,27.93 56.86,41.89 102.77,41.89 25.25,0 48.38,-5.02 69.38,-15.08 20.66,-9.61 37.31,-22.23 49.71,-37.98z"/>
  <path id="_2_4" class="fil1" d="M8906.07 16454.14l104.79 -227.56 25.24 0 15.31 344.52 -12.74 0c-9.16,0 -21.11,0.67 -35.97,2.01l-21.67 2.01 0 -6.03c26.25,-7.26 39.32,-30.72 39.32,-70.38 0,0.67 -0.22,-6.7 -0.67,-22.01l-8.49 -190.8 -104.78 229.57 -135.51 -288.89 27.81 0 107.36 227.56zm169.58 116.96l-15.64 -344.52 11.06 0c15.97,0 38.32,-1.56 67.14,-4.69l0 6.03c-15.08,2.57 -26.59,9.61 -34.75,21 -8.49,11.29 -12.73,25.03 -12.73,41.23l0.67 34.96 7.15 156.84c1.34,28.6 5.81,49.72 13.4,63.23 7.71,13.74 19.67,21.67 36.09,23.91l0 6.03c-32.29,-2.68 -56.42,-4.02 -72.39,-4.02zm-331.56 -344.52l149.24 317.26 -15.08 31.28 -135.5 -289 -8.49 195.5c-0.45,19.66 -0.67,27.82 -0.67,24.24 0,38.21 14.74,59.32 44.12,63.23l0 6.03c-0.22,0 -3.24,-0.45 -9.16,-1.34 -24.35,-1.79 -40.44,-2.68 -48.26,-2.68 -10.5,0 -29.27,1.34 -56.52,4.02l0 -6.03c27.59,-7.26 42.67,-35.64 45.02,-85.13l9.49 -223.64c-12.84,-16.09 -31.05,-26.92 -54.51,-32.4l0 -6.03c17.65,2.01 36.42,3.13 56.52,3.35l23.8 1.34z"/>
  <path id="_3_5" class="fil1" d="M9358.95 16457.82l7.48 0c1.46,27.93 12.74,50.94 33.63,69.04 20.44,17.88 44.12,26.81 70.71,26.81 20.56,0 37.31,-5.81 50.16,-17.31 12.85,-11.62 19.33,-25.47 19.33,-41.56 0,-17.09 -6.26,-30.27 -18.66,-39.66 -12.06,-9.16 -35.75,-19.55 -71.16,-31.05 -28.37,-9.39 -48.59,-17.21 -60.55,-23.24 -13.96,-7.26 -24.8,-16.98 -32.62,-29.16 -8.49,-12.51 -12.73,-26.47 -12.73,-42 0,-17.2 5.81,-34.18 17.31,-50.83 -2.68,8.49 -3.91,15.98 -3.91,22.34 0,16.98 4.02,31.95 12.07,44.91 8.26,13.3 18.43,23.35 30.61,30.16 12.28,7.04 32.73,14.97 61.33,23.91 37.31,11.4 64.34,23.91 80.99,37.65 15.97,13.29 23.9,31.17 23.9,53.62 0,22.01 -8.26,42 -24.8,59.88 -16.86,18.09 -42,27.14 -75.4,27.14 -13.52,0 -32.29,-2.45 -56.3,-7.48 -21.01,-4.36 -36.76,-6.7 -47.15,-6.93l-2.34 -2.57c0.22,-3.68 0.33,-8.49 0.33,-14.41 0,-6.92 -0.67,-17.76 -2.01,-32.39 -1,-14.64 -1.56,-25.47 -1.56,-32.74 0,-9.38 0.44,-17.42 1.34,-24.13zm231.24 -136.84l-6.81 0c-0.23,-25.36 -10.28,-44.02 -30.28,-56.31 -19.43,-11.95 -43.01,-17.98 -70.82,-17.98 -22.12,0 -40.22,4.69 -54.41,14.07 -14.41,9.39 -21.67,20.67 -21.67,33.74 0,13.97 5.7,24.91 17.09,33.07 11.73,8.71 34.97,19.1 69.71,31.05 32.4,11.18 55.08,20.22 67.92,27.15 13.86,7.6 25.36,18.54 34.52,32.73 9.27,14.64 13.85,30.83 13.85,48.82 0,27.26 -10.05,48.59 -30.27,64.12 7.48,-10.28 11.17,-24.69 11.17,-43.23 0,-17.43 -4.02,-32.96 -12.18,-46.47 -8.49,-13.74 -18.99,-24.69 -31.5,-32.73 -12.73,-8.27 -33.29,-17.1 -62,-26.48 -43.01,-14.19 -71.05,-26.36 -84.23,-36.31 -12.96,-10.27 -19.55,-26.25 -19.55,-47.81 0,-24.91 10.06,-44.46 30.05,-58.65 20.11,-13.74 48.71,-20.55 85.57,-20.55 25.25,0 55.97,4.35 92.28,13.07l0 2.34 0.56 12.4c0,6.48 0.22,14.42 0.67,23.58 0.67,11.06 1,20.89 1,29.49 0,5.58 -0.22,12.62 -0.67,20.89z"/>
  <path id="_4_6" class="fil1" d="M9974.59 16537.25c23.8,-32.28 35.64,-80.88 35.64,-145.78 0,-57.42 -11.73,-102.11 -35.3,-134.17 44.79,26.81 67.25,72.73 67.25,137.74 0,64.12 -22.57,111.49 -67.59,142.21zm-263.41 -280.28c-24.02,37.09 -36.09,84.56 -36.09,142.32 0,52.28 11.51,97.63 34.41,136.06 -44.13,-29.04 -66.13,-75.51 -66.13,-139.3 0,-65.69 22.56,-112.05 67.81,-139.08zm244.53 140.31c0,-104.45 -37.87,-156.62 -113.72,-156.62 -74.29,0 -111.49,53.51 -111.49,160.53 0,100.76 37.65,151.14 112.83,151.14 74.96,0 112.38,-51.72 112.38,-155.05zm30.72 -0.34c0,40.22 -6.14,74.07 -18.32,101.77 -11.95,27.48 -28.82,47.81 -50.6,60.88 -21.45,13.52 -46.36,20.22 -74.96,20.22 -45.24,0 -80.43,-16.31 -105.23,-48.81 -24.8,-32.51 -37.32,-77.2 -37.32,-134.17 0,-59.21 12.74,-104.56 37.99,-136.18 25.36,-31.16 59.99,-46.8 104,-46.8 44.57,0 79.87,15.64 105.79,46.8 25.81,30.95 38.65,76.41 38.65,136.29z"/>
  <path id="_5_7" class="fil1" d="M10327.37 16571.1l-151.48 0 0 -344.52c14.86,-0.56 31.39,-1.67 49.71,-3.35 17.1,-0.89 24.92,-1.34 23.57,-1.34l0 6.03c-16.75,4.36 -28.71,12.96 -35.63,25.81 -7.04,13.29 -10.5,33.06 -10.5,59.32l0 142.32c0,21.33 1.11,40.44 3.24,57.19 2.01,17.77 4.24,27.82 6.92,30.5 2.35,2.57 8.72,3.91 18.99,3.91l68.71 0c24.24,0 44.24,-3.8 60.21,-11.51 15.97,-7.59 29.94,-22.67 41.89,-45.13l6.59 0c-1.56,10.5 -6.48,27.04 -14.74,49.71 -5.48,14.53 -8.94,26.26 -10.5,34.97 -17.65,-2.57 -36.65,-3.91 -56.98,-3.91zm-243.98 -349.21l69.04 4.69 0 344.52 -20.33 0c-12.4,0 -28.6,1.34 -48.71,3.91l0 -5.92c16.2,-6.26 27.15,-16.42 33.07,-30.39 5.92,-14.18 8.83,-36.97 8.83,-68.14l0 -156.51c0,-33.4 -4.36,-55.41 -13.07,-66.13 -8.94,-10.95 -18.55,-17.65 -28.83,-20l0 -6.03z"/>
  <path id="_6_8" class="fil1" d="M10749.09 16226.58l0 344.52 -30.72 0c2.12,-7.15 3.35,-17.65 3.57,-31.5 -36.3,23.68 -74.4,35.52 -114.17,35.52 -23.46,0 -43.9,-5.14 -61.44,-15.41 -17.42,-10.17 -29.27,-23.35 -35.41,-39.44 -6.26,-16.42 -9.5,-39.43 -9.5,-69.04l0 -224.65c22.91,0 48.26,-1.56 75.97,-4.69l0 6.03c-12.07,2.01 -21.79,6.7 -29.16,14.08 -7.82,7.93 -12.84,16.64 -15.08,26.25 -2.57,10.05 -3.91,25.69 -3.91,46.81l-0.33 6.92 0 125.12c0,27.82 2.12,47.92 6.25,60.32 3.91,12.85 12.85,23.58 26.92,32.18 14.19,8.49 31.84,12.73 52.84,12.73 33.74,0 69.38,-12.4 107.02,-37.09l0 -191.36c0,-24.69 -1.23,-42.67 -3.57,-54.07 -2.24,-10.61 -6.93,-19.77 -14.19,-27.14 -6.7,-6.82 -15.97,-11.73 -27.7,-14.75l0 -6.03c1.23,0 4.35,0.11 9.16,0.45 4.69,0.22 9.83,0.78 15.3,1.56 17.88,1.23 33.96,2.12 48.15,2.68zm-343.4 -4.69l72.95 4.69 0 226.89c0,33.85 2.23,57.53 6.81,71.05 4.58,13.96 14.52,27.37 29.72,40.21 -13.75,-2.23 -26.03,-7.26 -36.87,-15.3 -10.95,-7.93 -18.21,-17.43 -21.89,-28.6 -3.47,-10.61 -5.26,-28.49 -5.26,-53.4l0 -156.62c0,-26.59 -3.57,-46.25 -10.83,-58.98 -7.15,-12.63 -18.77,-20.67 -34.63,-23.91l0 -6.03zm385.51 349.21l-18.65 0 0 -344.52c16.42,-0.56 28.82,-1.23 37.31,-2.01l36.98 -2.68 0 6.03c-11.17,2.01 -20.78,7.15 -28.82,15.42 -7.6,8.04 -12.63,18.1 -15.09,30.16 -2.12,11.06 -3.24,32.4 -3.24,63.79l0 144.22c0,54.07 15.76,83.33 47.15,87.69l0 5.92c-28.82,-2.68 -47.37,-4.02 -55.64,-4.02z"/>
  <path id="_7_9" class="fil1" d="M11092.94 16571.1l-8.49 0 0 -344.52 117.97 0c21.56,0 42.78,-1.34 63.79,-3.91 0,4.13 -0.34,11.62 -1.01,22.57 -0.67,9.94 -1,22.56 -1,37.53 0,9.61 -0.56,19.33 -1.57,29.16l-7.93 0c-0.45,-17.99 -4.92,-32.73 -13.41,-44.57 -8.71,-11.96 -27.14,-17.99 -55.29,-17.99l-74.29 0 0 234.04c0,26.81 3.8,47.03 11.51,60.54 7.59,13.52 19.32,21.9 35.3,25.14l0 6.03c-38.66,-2.68 -60.55,-4.02 -65.58,-4.02zm-140.75 -344.52l108.02 0 0 344.52 -9.83 0c-14.19,0 -35.41,1.34 -63.56,4.02l0 -6.03c18.09,-4.58 30.6,-13.85 37.31,-27.82 6.59,-13.74 9.83,-36.64 9.83,-68.59l0 -223.31 -83.45 0c-21.23,0 -36.08,4.36 -44.8,13.07 -8.82,8.71 -16.08,25.25 -22,49.49l-7.49 0c-0.22,-2.91 -0.33,-5.92 -0.33,-9.27 0,-4.36 0.44,-9.95 1.34,-16.65 2.57,-23.35 3.91,-44.46 3.91,-63.34 11.5,1.57 25.91,2.46 43.23,2.91l27.82 1z"/>
  <path id="_8" class="fil1" d="M11404.28 16571.1l0 -344.52c27.15,0 51.16,-1.56 72.05,-4.69l0 6.03c-12.84,2.35 -23.57,9.39 -32.06,21 -8.71,11.96 -13.07,36.76 -13.07,74.29l0 156.17c0,33.63 4.58,56.2 13.74,67.81 9.16,11.51 19.66,18.88 31.39,21.9l0 6.03c-20.44,-2.68 -44.46,-4.02 -72.05,-4.02zm-24.58 -344.52l0 344.52c-15.75,0 -39.65,1.34 -71.72,4.02l0 -6.03c16.76,-4.36 28.49,-13.85 34.97,-28.49 6.59,-14.41 9.83,-40.44 9.83,-78.31l0 -146.34c0,-28.37 -3.35,-49.15 -10.17,-62.45 -6.7,-13.18 -18.32,-21.67 -34.63,-25.58l0 -6.03c26.59,2.57 50.5,4.13 71.72,4.69z"/>
  <path id="_9" class="fil1" d="M11855.48 16537.25c23.8,-32.28 35.64,-80.88 35.64,-145.78 0,-57.42 -11.73,-102.11 -35.3,-134.17 44.79,26.81 67.25,72.73 67.25,137.74 0,64.12 -22.57,111.49 -67.59,142.21zm-263.41 -280.28c-24.02,37.09 -36.09,84.56 -36.09,142.32 0,52.28 11.51,97.63 34.41,136.06 -44.13,-29.04 -66.13,-75.51 -66.13,-139.3 0,-65.69 22.56,-112.05 67.81,-139.08zm244.53 140.31c0,-104.45 -37.87,-156.62 -113.72,-156.62 -74.29,0 -111.49,53.51 -111.49,160.53 0,100.76 37.65,151.14 112.83,151.14 74.96,0 112.38,-51.72 112.38,-155.05zm30.72 -0.34c0,40.22 -6.14,74.07 -18.32,101.77 -11.95,27.48 -28.82,47.81 -50.6,60.88 -21.45,13.52 -46.36,20.22 -74.96,20.22 -45.24,0 -80.43,-16.31 -105.23,-48.81 -24.8,-32.51 -37.32,-77.2 -37.32,-134.17 0,-59.21 12.74,-104.56 37.99,-136.18 25.36,-31.16 59.99,-46.8 104,-46.8 44.57,0 79.87,15.64 105.79,46.8 25.81,30.95 38.65,76.41 38.65,136.29z"/>
  <path id="_10" class="fil1" d="M12339.19 16516.03l-340.27 -289.45 38.98 0 275.15 233.81 0 -135.84c0,-22.79 -1.56,-40.21 -4.58,-52.39 -3.02,-11.62 -9.27,-21.34 -18.66,-29.16 -9.38,-7.71 -21.33,-12.73 -35.97,-15.08l0 -6.03c0.23,0 4.03,0.45 11.4,1.34 28.6,2.23 48.03,3.35 58.31,3.35 9.39,0 31.73,-1.56 67.03,-4.69l0 6.03c-11.4,1.57 -21.23,6.26 -29.83,14.08 -8.27,7.37 -13.96,16.53 -16.98,27.48 -3.01,11.17 -4.58,26.81 -4.58,46.81l0 199.74zm-377.25 -289.45l377.25 321.51 0 27.03 -6.48 0 -296.48 -252.58 0 152.26c0,33.18 4.24,56.2 12.73,69.04 8.49,12.96 22.01,21.34 40.33,25.25l0 6.03c-33.06,-2.68 -55.52,-4.02 -67.25,-4.02 -13.4,0 -33.51,1.34 -60.43,4.02l0 -6.03c18.76,-4.36 31.61,-13.18 38.31,-26.48 6.82,-13.4 10.17,-36.97 10.17,-70.71l-0.34 -170.92 -23.57 -20c-32.73,-27.92 -60.32,-45.69 -82.78,-53.06l0 -6.03 58.54 4.69z"/>
  <path id="_11" class="fil1" d="M12438.73 16457.82l7.48 0c1.46,27.93 12.74,50.94 33.63,69.04 20.44,17.88 44.12,26.81 70.71,26.81 20.56,0 37.31,-5.81 50.16,-17.31 12.85,-11.62 19.33,-25.47 19.33,-41.56 0,-17.09 -6.26,-30.27 -18.66,-39.66 -12.06,-9.16 -35.75,-19.55 -71.16,-31.05 -28.37,-9.39 -48.59,-17.21 -60.55,-23.24 -13.96,-7.26 -24.8,-16.98 -32.62,-29.16 -8.49,-12.51 -12.73,-26.47 -12.73,-42 0,-17.2 5.81,-34.18 17.31,-50.83 -2.68,8.49 -3.91,15.98 -3.91,22.34 0,16.98 4.02,31.95 12.07,44.91 8.26,13.3 18.43,23.35 30.61,30.16 12.28,7.04 32.73,14.97 61.33,23.91 37.31,11.4 64.34,23.91 80.99,37.65 15.97,13.29 23.9,31.17 23.9,53.62 0,22.01 -8.26,42 -24.8,59.88 -16.86,18.09 -42,27.14 -75.4,27.14 -13.52,0 -32.29,-2.45 -56.3,-7.48 -21.01,-4.36 -36.76,-6.7 -47.15,-6.93l-2.34 -2.57c0.22,-3.68 0.33,-8.49 0.33,-14.41 0,-6.92 -0.67,-17.76 -2.01,-32.39 -1,-14.64 -1.56,-25.47 -1.56,-32.74 0,-9.38 0.44,-17.42 1.34,-24.13zm231.24 -136.84l-6.81 0c-0.23,-25.36 -10.28,-44.02 -30.28,-56.31 -19.43,-11.95 -43.01,-17.98 -70.82,-17.98 -22.12,0 -40.22,4.69 -54.41,14.07 -14.41,9.39 -21.67,20.67 -21.67,33.74 0,13.97 5.7,24.91 17.09,33.07 11.73,8.71 34.97,19.1 69.71,31.05 32.4,11.18 55.08,20.22 67.92,27.15 13.86,7.6 25.36,18.54 34.52,32.73 9.27,14.64 13.85,30.83 13.85,48.82 0,27.26 -10.05,48.59 -30.27,64.12 7.48,-10.28 11.17,-24.69 11.17,-43.23 0,-17.43 -4.02,-32.96 -12.18,-46.47 -8.49,-13.74 -18.99,-24.69 -31.5,-32.73 -12.73,-8.27 -33.29,-17.1 -62,-26.48 -43.01,-14.19 -71.05,-26.36 -84.23,-36.31 -12.96,-10.27 -19.55,-26.25 -19.55,-47.81 0,-24.91 10.06,-44.46 30.05,-58.65 20.11,-13.74 48.71,-20.55 85.57,-20.55 25.25,0 55.97,4.35 92.28,13.07l0 2.34 0.56 12.4c0,6.48 0.22,14.42 0.67,23.58 0.67,11.06 1,20.89 1,29.49 0,5.58 -0.22,12.62 -0.67,20.89z"/>
 </g>
</svg>
